<svg width="244" height="300" viewBox="0 0 244 300" fill="none" xmlns="http://www.w3.org/2000/svg">
<circle cx="2.5" cy="2.5" r="2.5" fill="#915AEE"/>
<circle cx="13.5" cy="2.5" r="2.5" fill="#915AEE"/>
<circle cx="24.5" cy="2.5" r="2.5" fill="#915AEE"/>
<circle cx="35.5" cy="2.5" r="2.5" fill="#915AEE"/>
<circle cx="46.5" cy="2.5" r="2.5" fill="#915AEE"/>
<circle cx="57.5" cy="2.5" r="2.5" fill="#915AEE"/>
<circle cx="68.5" cy="2.5" r="2.5" fill="#915AEE"/>
<circle cx="79.5" cy="2.5" r="2.5" fill="#915AEE"/>
<circle cx="90.5" cy="2.5" r="2.5" fill="#915AEE"/>
<circle cx="101.5" cy="2.5" r="2.5" fill="#915AEE"/>
<circle cx="112.5" cy="2.5" r="2.5" fill="#915AEE"/>
<circle cx="123.5" cy="2.5" r="2.5" fill="#915AEE"/>
<circle cx="134.5" cy="2.5" r="2.5" fill="#915AEE"/>
<circle cx="145.5" cy="2.5" r="2.5" fill="#915AEE"/>
<circle cx="156.5" cy="2.5" r="2.5" fill="#915AEE"/>
<circle cx="167.5" cy="2.5" r="2.5" fill="#915AEE"/>
<circle cx="178.5" cy="2.5" r="2.5" fill="#915AEE"/>
<circle cx="189.5" cy="2.5" r="2.5" fill="#915AEE"/>
<circle cx="200.5" cy="2.5" r="2.5" fill="#915AEE"/>
<circle cx="211.5" cy="2.5" r="2.5" fill="#915AEE"/>
<circle cx="222.5" cy="2.5" r="2.5" fill="#915AEE"/>
<circle cx="233.5" cy="2.5" r="2.5" fill="#915AEE"/>
<circle cx="244.5" cy="2.5" r="2.5" fill="#915AEE"/>
<circle cx="2.5" cy="13.5" r="2.5" fill="#915AEE"/>
<circle cx="13.5" cy="13.5" r="2.5" fill="#915AEE"/>
<circle cx="24.5" cy="13.5" r="2.5" fill="#915AEE"/>
<circle cx="35.5" cy="13.5" r="2.5" fill="#915AEE"/>
<circle cx="46.5" cy="13.5" r="2.5" fill="#915AEE"/>
<circle cx="57.5" cy="13.5" r="2.5" fill="#915AEE"/>
<circle cx="68.5" cy="13.5" r="2.5" fill="#915AEE"/>
<circle cx="79.5" cy="13.5" r="2.5" fill="#915AEE"/>
<circle cx="90.5" cy="13.5" r="2.5" fill="#915AEE"/>
<circle cx="101.5" cy="13.5" r="2.5" fill="#915AEE"/>
<circle cx="112.5" cy="13.5" r="2.5" fill="#915AEE"/>
<circle cx="123.5" cy="13.5" r="2.5" fill="#915AEE"/>
<circle cx="134.5" cy="13.5" r="2.5" fill="#915AEE"/>
<circle cx="145.5" cy="13.5" r="2.5" fill="#915AEE"/>
<circle cx="156.5" cy="13.5" r="2.5" fill="#915AEE"/>
<circle cx="167.5" cy="13.5" r="2.5" fill="#915AEE"/>
<circle cx="178.5" cy="13.5" r="2.5" fill="#915AEE"/>
<circle cx="189.5" cy="13.5" r="2.5" fill="#915AEE"/>
<circle cx="200.5" cy="13.5" r="2.5" fill="#915AEE"/>
<circle cx="211.5" cy="13.5" r="2.5" fill="#915AEE"/>
<circle cx="222.5" cy="13.5" r="2.5" fill="#915AEE"/>
<circle cx="233.5" cy="13.5" r="2.5" fill="#915AEE"/>
<circle cx="244.5" cy="13.5" r="2.5" fill="#915AEE"/>
<circle cx="2.5" cy="24.5" r="2.5" fill="#915AEE"/>
<circle cx="13.5" cy="24.5" r="2.5" fill="#915AEE"/>
<circle cx="24.5" cy="24.5" r="2.5" fill="#915AEE"/>
<circle cx="35.5" cy="24.5" r="2.5" fill="#915AEE"/>
<circle cx="46.5" cy="24.5" r="2.5" fill="#915AEE"/>
<circle cx="57.5" cy="24.5" r="2.5" fill="#915AEE"/>
<circle cx="68.5" cy="24.5" r="2.5" fill="#915AEE"/>
<circle cx="79.5" cy="24.5" r="2.5" fill="#915AEE"/>
<circle cx="90.5" cy="24.5" r="2.5" fill="#915AEE"/>
<circle cx="101.5" cy="24.5" r="2.5" fill="#915AEE"/>
<circle cx="112.5" cy="24.5" r="2.5" fill="#915AEE"/>
<circle cx="123.5" cy="24.5" r="2.5" fill="#915AEE"/>
<circle cx="134.5" cy="24.5" r="2.5" fill="#915AEE"/>
<circle cx="145.5" cy="24.5" r="2.5" fill="#915AEE"/>
<circle cx="156.5" cy="24.5" r="2.5" fill="#915AEE"/>
<circle cx="167.5" cy="24.5" r="2.5" fill="#915AEE"/>
<circle cx="178.5" cy="24.5" r="2.5" fill="#915AEE"/>
<circle cx="189.5" cy="24.5" r="2.5" fill="#915AEE"/>
<circle cx="200.5" cy="24.5" r="2.5" fill="#915AEE"/>
<circle cx="211.5" cy="24.5" r="2.5" fill="#915AEE"/>
<circle cx="222.5" cy="24.5" r="2.5" fill="#915AEE"/>
<circle cx="233.5" cy="24.5" r="2.5" fill="#915AEE"/>
<circle cx="244.5" cy="24.5" r="2.5" fill="#915AEE"/>
<circle cx="2.5" cy="35.5" r="2.5" fill="#915AEE"/>
<circle cx="13.5" cy="35.5" r="2.5" fill="#915AEE"/>
<circle cx="24.5" cy="35.5" r="2.5" fill="#915AEE"/>
<circle cx="35.5" cy="35.5" r="2.5" fill="#915AEE"/>
<circle cx="46.5" cy="35.5" r="2.5" fill="#915AEE"/>
<circle cx="57.5" cy="35.5" r="2.5" fill="#915AEE"/>
<circle cx="68.5" cy="35.5" r="2.5" fill="#915AEE"/>
<circle cx="79.5" cy="35.5" r="2.5" fill="#915AEE"/>
<circle cx="90.5" cy="35.5" r="2.5" fill="#915AEE"/>
<circle cx="101.5" cy="35.5" r="2.5" fill="#915AEE"/>
<circle cx="112.5" cy="35.5" r="2.5" fill="#915AEE"/>
<circle cx="123.5" cy="35.5" r="2.5" fill="#915AEE"/>
<circle cx="134.5" cy="35.5" r="2.5" fill="#915AEE"/>
<circle cx="145.5" cy="35.5" r="2.5" fill="#915AEE"/>
<circle cx="156.5" cy="35.5" r="2.5" fill="#915AEE"/>
<circle cx="167.5" cy="35.5" r="2.5" fill="#915AEE"/>
<circle cx="178.5" cy="35.5" r="2.5" fill="#915AEE"/>
<circle cx="189.5" cy="35.5" r="2.5" fill="#915AEE"/>
<circle cx="200.5" cy="35.5" r="2.5" fill="#915AEE"/>
<circle cx="211.5" cy="35.5" r="2.5" fill="#915AEE"/>
<circle cx="222.5" cy="35.5" r="2.5" fill="#915AEE"/>
<circle cx="233.5" cy="35.5" r="2.5" fill="#915AEE"/>
<circle cx="244.5" cy="35.5" r="2.5" fill="#915AEE"/>
<circle cx="2.5" cy="46.5" r="2.5" fill="#915AEE"/>
<circle cx="13.5" cy="46.5" r="2.5" fill="#915AEE"/>
<circle cx="24.5" cy="46.5" r="2.5" fill="#915AEE"/>
<circle cx="35.5" cy="46.5" r="2.5" fill="#915AEE"/>
<circle cx="46.5" cy="46.5" r="2.5" fill="#915AEE"/>
<circle cx="57.5" cy="46.5" r="2.5" fill="#915AEE"/>
<circle cx="68.5" cy="46.5" r="2.5" fill="#915AEE"/>
<circle cx="79.5" cy="46.5" r="2.5" fill="#915AEE"/>
<circle cx="90.5" cy="46.5" r="2.5" fill="#915AEE"/>
<circle cx="101.5" cy="46.5" r="2.5" fill="#915AEE"/>
<circle cx="112.5" cy="46.5" r="2.5" fill="#915AEE"/>
<circle cx="123.5" cy="46.5" r="2.5" fill="#915AEE"/>
<circle cx="134.5" cy="46.5" r="2.5" fill="#915AEE"/>
<circle cx="145.5" cy="46.5" r="2.5" fill="#915AEE"/>
<circle cx="156.5" cy="46.5" r="2.5" fill="#915AEE"/>
<circle cx="167.5" cy="46.5" r="2.5" fill="#915AEE"/>
<circle cx="178.5" cy="46.5" r="2.5" fill="#915AEE"/>
<circle cx="189.5" cy="46.5" r="2.5" fill="#915AEE"/>
<circle cx="200.5" cy="46.5" r="2.5" fill="#915AEE"/>
<circle cx="211.5" cy="46.5" r="2.5" fill="#915AEE"/>
<circle cx="222.5" cy="46.5" r="2.5" fill="#915AEE"/>
<circle cx="233.5" cy="46.5" r="2.5" fill="#915AEE"/>
<circle cx="244.5" cy="46.5" r="2.5" fill="#915AEE"/>
<circle cx="2.5" cy="57.5" r="2.5" fill="#915AEE"/>
<circle cx="13.5" cy="57.5" r="2.5" fill="#915AEE"/>
<circle cx="24.5" cy="57.5" r="2.5" fill="#915AEE"/>
<circle cx="35.5" cy="57.5" r="2.5" fill="#915AEE"/>
<circle cx="46.5" cy="57.5" r="2.5" fill="#915AEE"/>
<circle cx="57.5" cy="57.5" r="2.5" fill="#915AEE"/>
<circle cx="68.5" cy="57.5" r="2.5" fill="#915AEE"/>
<circle cx="79.5" cy="57.5" r="2.5" fill="#915AEE"/>
<circle cx="90.5" cy="57.5" r="2.5" fill="#915AEE"/>
<circle cx="101.5" cy="57.5" r="2.5" fill="#915AEE"/>
<circle cx="112.5" cy="57.5" r="2.5" fill="#915AEE"/>
<circle cx="123.5" cy="57.5" r="2.5" fill="#915AEE"/>
<circle cx="134.5" cy="57.5" r="2.5" fill="#915AEE"/>
<circle cx="145.5" cy="57.5" r="2.5" fill="#915AEE"/>
<circle cx="156.5" cy="57.5" r="2.5" fill="#915AEE"/>
<circle cx="167.5" cy="57.5" r="2.5" fill="#915AEE"/>
<circle cx="178.5" cy="57.5" r="2.5" fill="#915AEE"/>
<circle cx="189.5" cy="57.5" r="2.5" fill="#915AEE"/>
<circle cx="200.5" cy="57.5" r="2.5" fill="#915AEE"/>
<circle cx="211.5" cy="57.5" r="2.5" fill="#915AEE"/>
<circle cx="222.5" cy="57.5" r="2.5" fill="#915AEE"/>
<circle cx="233.5" cy="57.5" r="2.5" fill="#915AEE"/>
<circle cx="244.5" cy="57.5" r="2.5" fill="#915AEE"/>
<circle cx="2.5" cy="68.5" r="2.5" fill="#915AEE"/>
<circle cx="13.5" cy="68.5" r="2.5" fill="#915AEE"/>
<circle cx="24.5" cy="68.5" r="2.5" fill="#915AEE"/>
<circle cx="35.5" cy="68.5" r="2.5" fill="#915AEE"/>
<circle cx="46.5" cy="68.5" r="2.5" fill="#915AEE"/>
<circle cx="57.5" cy="68.5" r="2.5" fill="#915AEE"/>
<circle cx="68.5" cy="68.5" r="2.5" fill="#915AEE"/>
<circle cx="79.5" cy="68.5" r="2.5" fill="#915AEE"/>
<circle cx="90.5" cy="68.5" r="2.5" fill="#915AEE"/>
<circle cx="101.5" cy="68.5" r="2.5" fill="#915AEE"/>
<circle cx="112.5" cy="68.5" r="2.5" fill="#915AEE"/>
<circle cx="123.5" cy="68.5" r="2.5" fill="#915AEE"/>
<circle cx="134.5" cy="68.5" r="2.5" fill="#915AEE"/>
<circle cx="145.5" cy="68.5" r="2.5" fill="#915AEE"/>
<circle cx="156.5" cy="68.5" r="2.5" fill="#915AEE"/>
<circle cx="167.5" cy="68.5" r="2.5" fill="#915AEE"/>
<circle cx="178.5" cy="68.5" r="2.5" fill="#915AEE"/>
<circle cx="189.5" cy="68.5" r="2.5" fill="#915AEE"/>
<circle cx="200.5" cy="68.5" r="2.5" fill="#915AEE"/>
<circle cx="211.5" cy="68.5" r="2.5" fill="#915AEE"/>
<circle cx="222.5" cy="68.5" r="2.5" fill="#915AEE"/>
<circle cx="233.5" cy="68.5" r="2.5" fill="#915AEE"/>
<circle cx="244.5" cy="68.5" r="2.5" fill="#915AEE"/>
<circle cx="2.5" cy="79.5" r="2.5" fill="#915AEE"/>
<circle cx="13.5" cy="79.5" r="2.5" fill="#915AEE"/>
<circle cx="24.5" cy="79.5" r="2.5" fill="#915AEE"/>
<circle cx="35.5" cy="79.5" r="2.5" fill="#915AEE"/>
<circle cx="46.5" cy="79.5" r="2.5" fill="#915AEE"/>
<circle cx="57.5" cy="79.5" r="2.5" fill="#915AEE"/>
<circle cx="68.5" cy="79.5" r="2.5" fill="#915AEE"/>
<circle cx="79.5" cy="79.5" r="2.5" fill="#915AEE"/>
<circle cx="90.5" cy="79.5" r="2.5" fill="#915AEE"/>
<circle cx="101.5" cy="79.5" r="2.5" fill="#915AEE"/>
<circle cx="112.5" cy="79.5" r="2.5" fill="#915AEE"/>
<circle cx="123.5" cy="79.5" r="2.5" fill="#915AEE"/>
<circle cx="134.5" cy="79.5" r="2.5" fill="#915AEE"/>
<circle cx="145.5" cy="79.5" r="2.5" fill="#915AEE"/>
<circle cx="156.5" cy="79.5" r="2.5" fill="#915AEE"/>
<circle cx="167.5" cy="79.5" r="2.5" fill="#915AEE"/>
<circle cx="178.5" cy="79.5" r="2.5" fill="#915AEE"/>
<circle cx="189.5" cy="79.5" r="2.5" fill="#915AEE"/>
<circle cx="200.5" cy="79.5" r="2.5" fill="#915AEE"/>
<circle cx="211.5" cy="79.5" r="2.5" fill="#915AEE"/>
<circle cx="222.5" cy="79.5" r="2.5" fill="#915AEE"/>
<circle cx="233.5" cy="79.5" r="2.5" fill="#915AEE"/>
<circle cx="244.5" cy="79.5" r="2.5" fill="#915AEE"/>
<circle cx="2.5" cy="90.5" r="2.5" fill="#915AEE"/>
<circle cx="13.5" cy="90.5" r="2.5" fill="#915AEE"/>
<circle cx="24.5" cy="90.5" r="2.5" fill="#915AEE"/>
<circle cx="35.5" cy="90.5" r="2.5" fill="#915AEE"/>
<circle cx="46.5" cy="90.5" r="2.5" fill="#915AEE"/>
<circle cx="57.5" cy="90.5" r="2.5" fill="#915AEE"/>
<circle cx="68.5" cy="90.5" r="2.5" fill="#915AEE"/>
<circle cx="79.5" cy="90.5" r="2.5" fill="#915AEE"/>
<circle cx="90.5" cy="90.5" r="2.5" fill="#915AEE"/>
<circle cx="101.5" cy="90.5" r="2.5" fill="#915AEE"/>
<circle cx="112.5" cy="90.5" r="2.5" fill="#915AEE"/>
<circle cx="123.5" cy="90.5" r="2.5" fill="#915AEE"/>
<circle cx="134.5" cy="90.5" r="2.5" fill="#915AEE"/>
<circle cx="145.5" cy="90.5" r="2.5" fill="#915AEE"/>
<circle cx="156.5" cy="90.5" r="2.5" fill="#915AEE"/>
<circle cx="167.5" cy="90.5" r="2.5" fill="#915AEE"/>
<circle cx="178.5" cy="90.5" r="2.5" fill="#915AEE"/>
<circle cx="189.5" cy="90.5" r="2.5" fill="#915AEE"/>
<circle cx="200.5" cy="90.5" r="2.5" fill="#915AEE"/>
<circle cx="211.5" cy="90.5" r="2.5" fill="#915AEE"/>
<circle cx="222.5" cy="90.5" r="2.5" fill="#915AEE"/>
<circle cx="233.5" cy="90.5" r="2.5" fill="#915AEE"/>
<circle cx="244.5" cy="90.5" r="2.5" fill="#915AEE"/>
<circle cx="2.5" cy="101.5" r="2.5" fill="#915AEE"/>
<circle cx="13.5" cy="101.5" r="2.5" fill="#915AEE"/>
<circle cx="24.5" cy="101.5" r="2.5" fill="#915AEE"/>
<circle cx="35.5" cy="101.5" r="2.5" fill="#915AEE"/>
<circle cx="46.5" cy="101.5" r="2.5" fill="#915AEE"/>
<circle cx="57.5" cy="101.5" r="2.5" fill="#915AEE"/>
<circle cx="68.5" cy="101.5" r="2.5" fill="#915AEE"/>
<circle cx="79.5" cy="101.5" r="2.5" fill="#915AEE"/>
<circle cx="90.5" cy="101.5" r="2.5" fill="#915AEE"/>
<circle cx="101.5" cy="101.5" r="2.5" fill="#915AEE"/>
<circle cx="112.5" cy="101.5" r="2.5" fill="#915AEE"/>
<circle cx="123.5" cy="101.5" r="2.5" fill="#915AEE"/>
<circle cx="134.5" cy="101.5" r="2.5" fill="#915AEE"/>
<circle cx="145.5" cy="101.5" r="2.5" fill="#915AEE"/>
<circle cx="156.5" cy="101.5" r="2.5" fill="#915AEE"/>
<circle cx="167.5" cy="101.5" r="2.5" fill="#915AEE"/>
<circle cx="178.5" cy="101.5" r="2.5" fill="#915AEE"/>
<circle cx="189.5" cy="101.5" r="2.5" fill="#915AEE"/>
<circle cx="200.5" cy="101.5" r="2.5" fill="#915AEE"/>
<circle cx="211.5" cy="101.5" r="2.5" fill="#915AEE"/>
<circle cx="222.5" cy="101.5" r="2.5" fill="#915AEE"/>
<circle cx="233.5" cy="101.5" r="2.5" fill="#915AEE"/>
<circle cx="244.5" cy="101.5" r="2.5" fill="#915AEE"/>
<circle cx="2.5" cy="112.5" r="2.5" fill="#915AEE"/>
<circle cx="13.5" cy="112.5" r="2.5" fill="#915AEE"/>
<circle cx="24.5" cy="112.5" r="2.5" fill="#915AEE"/>
<circle cx="35.5" cy="112.5" r="2.5" fill="#915AEE"/>
<circle cx="46.5" cy="112.5" r="2.5" fill="#915AEE"/>
<circle cx="57.5" cy="112.5" r="2.5" fill="#915AEE"/>
<circle cx="68.5" cy="112.5" r="2.5" fill="#915AEE"/>
<circle cx="79.5" cy="112.5" r="2.5" fill="#915AEE"/>
<circle cx="90.5" cy="112.5" r="2.5" fill="#915AEE"/>
<circle cx="101.5" cy="112.5" r="2.5" fill="#915AEE"/>
<circle cx="112.5" cy="112.5" r="2.5" fill="#915AEE"/>
<circle cx="123.5" cy="112.5" r="2.5" fill="#915AEE"/>
<circle cx="134.5" cy="112.5" r="2.5" fill="#915AEE"/>
<circle cx="145.5" cy="112.5" r="2.5" fill="#915AEE"/>
<circle cx="156.5" cy="112.5" r="2.5" fill="#915AEE"/>
<circle cx="167.5" cy="112.5" r="2.5" fill="#915AEE"/>
<circle cx="178.5" cy="112.5" r="2.5" fill="#915AEE"/>
<circle cx="189.5" cy="112.5" r="2.5" fill="#915AEE"/>
<circle cx="200.5" cy="112.5" r="2.5" fill="#915AEE"/>
<circle cx="211.5" cy="112.5" r="2.5" fill="#915AEE"/>
<circle cx="222.5" cy="112.5" r="2.5" fill="#915AEE"/>
<circle cx="233.5" cy="112.5" r="2.5" fill="#915AEE"/>
<circle cx="244.5" cy="112.5" r="2.5" fill="#915AEE"/>
<circle cx="2.5" cy="123.5" r="2.5" fill="#915AEE"/>
<circle cx="13.5" cy="123.5" r="2.5" fill="#915AEE"/>
<circle cx="24.5" cy="123.5" r="2.5" fill="#915AEE"/>
<circle cx="35.5" cy="123.5" r="2.5" fill="#915AEE"/>
<circle cx="46.5" cy="123.5" r="2.5" fill="#915AEE"/>
<circle cx="57.5" cy="123.5" r="2.5" fill="#915AEE"/>
<circle cx="68.5" cy="123.5" r="2.5" fill="#915AEE"/>
<circle cx="79.5" cy="123.5" r="2.5" fill="#915AEE"/>
<circle cx="90.5" cy="123.5" r="2.5" fill="#915AEE"/>
<circle cx="101.5" cy="123.5" r="2.5" fill="#915AEE"/>
<circle cx="112.5" cy="123.5" r="2.5" fill="#915AEE"/>
<circle cx="123.5" cy="123.5" r="2.5" fill="#915AEE"/>
<circle cx="134.5" cy="123.5" r="2.5" fill="#915AEE"/>
<circle cx="145.5" cy="123.5" r="2.5" fill="#915AEE"/>
<circle cx="156.5" cy="123.5" r="2.5" fill="#915AEE"/>
<circle cx="167.5" cy="123.5" r="2.5" fill="#915AEE"/>
<circle cx="178.5" cy="123.5" r="2.5" fill="#915AEE"/>
<circle cx="189.5" cy="123.5" r="2.5" fill="#915AEE"/>
<circle cx="200.5" cy="123.5" r="2.5" fill="#915AEE"/>
<circle cx="211.5" cy="123.5" r="2.5" fill="#915AEE"/>
<circle cx="222.5" cy="123.5" r="2.5" fill="#915AEE"/>
<circle cx="233.5" cy="123.5" r="2.5" fill="#915AEE"/>
<circle cx="244.5" cy="123.5" r="2.5" fill="#915AEE"/>
<circle cx="2.5" cy="134.5" r="2.5" fill="#915AEE"/>
<circle cx="13.5" cy="134.5" r="2.5" fill="#915AEE"/>
<circle cx="24.5" cy="134.5" r="2.5" fill="#915AEE"/>
<circle cx="35.5" cy="134.5" r="2.5" fill="#915AEE"/>
<circle cx="46.5" cy="134.5" r="2.5" fill="#915AEE"/>
<circle cx="57.5" cy="134.5" r="2.5" fill="#915AEE"/>
<circle cx="68.5" cy="134.5" r="2.5" fill="#915AEE"/>
<circle cx="79.5" cy="134.5" r="2.5" fill="#915AEE"/>
<circle cx="90.5" cy="134.5" r="2.5" fill="#915AEE"/>
<circle cx="101.5" cy="134.5" r="2.5" fill="#915AEE"/>
<circle cx="112.5" cy="134.5" r="2.5" fill="#915AEE"/>
<circle cx="123.5" cy="134.5" r="2.5" fill="#915AEE"/>
<circle cx="134.5" cy="134.5" r="2.5" fill="#915AEE"/>
<circle cx="145.5" cy="134.5" r="2.5" fill="#915AEE"/>
<circle cx="156.5" cy="134.5" r="2.5" fill="#915AEE"/>
<circle cx="167.5" cy="134.5" r="2.5" fill="#915AEE"/>
<circle cx="178.5" cy="134.5" r="2.5" fill="#915AEE"/>
<circle cx="189.5" cy="134.5" r="2.5" fill="#915AEE"/>
<circle cx="200.5" cy="134.5" r="2.5" fill="#915AEE"/>
<circle cx="211.5" cy="134.5" r="2.5" fill="#915AEE"/>
<circle cx="222.5" cy="134.5" r="2.5" fill="#915AEE"/>
<circle cx="233.5" cy="134.5" r="2.5" fill="#915AEE"/>
<circle cx="244.5" cy="134.5" r="2.5" fill="#915AEE"/>
<circle cx="2.5" cy="145.5" r="2.5" fill="#915AEE"/>
<circle cx="13.5" cy="145.5" r="2.5" fill="#915AEE"/>
<circle cx="24.5" cy="145.5" r="2.5" fill="#915AEE"/>
<circle cx="35.5" cy="145.5" r="2.5" fill="#915AEE"/>
<circle cx="46.5" cy="145.5" r="2.5" fill="#915AEE"/>
<circle cx="57.5" cy="145.5" r="2.5" fill="#915AEE"/>
<circle cx="68.5" cy="145.5" r="2.5" fill="#915AEE"/>
<circle cx="79.5" cy="145.5" r="2.5" fill="#915AEE"/>
<circle cx="90.5" cy="145.5" r="2.5" fill="#915AEE"/>
<circle cx="101.5" cy="145.5" r="2.5" fill="#915AEE"/>
<circle cx="112.5" cy="145.5" r="2.5" fill="#915AEE"/>
<circle cx="123.5" cy="145.5" r="2.5" fill="#915AEE"/>
<circle cx="134.5" cy="145.5" r="2.5" fill="#915AEE"/>
<circle cx="145.5" cy="145.5" r="2.5" fill="#915AEE"/>
<circle cx="156.5" cy="145.5" r="2.5" fill="#915AEE"/>
<circle cx="167.5" cy="145.5" r="2.5" fill="#915AEE"/>
<circle cx="178.5" cy="145.5" r="2.5" fill="#915AEE"/>
<circle cx="189.5" cy="145.5" r="2.5" fill="#915AEE"/>
<circle cx="200.5" cy="145.5" r="2.5" fill="#915AEE"/>
<circle cx="211.5" cy="145.5" r="2.5" fill="#915AEE"/>
<circle cx="222.5" cy="145.5" r="2.5" fill="#915AEE"/>
<circle cx="233.5" cy="145.5" r="2.5" fill="#915AEE"/>
<circle cx="244.5" cy="145.5" r="2.5" fill="#915AEE"/>
<circle cx="2.5" cy="156.5" r="2.5" fill="#915AEE"/>
<circle cx="13.5" cy="156.5" r="2.5" fill="#915AEE"/>
<circle cx="24.5" cy="156.5" r="2.5" fill="#915AEE"/>
<circle cx="35.5" cy="156.5" r="2.5" fill="#915AEE"/>
<circle cx="46.5" cy="156.5" r="2.5" fill="#915AEE"/>
<circle cx="57.5" cy="156.5" r="2.5" fill="#915AEE"/>
<circle cx="68.5" cy="156.5" r="2.5" fill="#915AEE"/>
<circle cx="79.5" cy="156.5" r="2.5" fill="#915AEE"/>
<circle cx="90.5" cy="156.5" r="2.5" fill="#915AEE"/>
<circle cx="101.5" cy="156.5" r="2.5" fill="#915AEE"/>
<circle cx="112.5" cy="156.5" r="2.5" fill="#915AEE"/>
<circle cx="123.5" cy="156.5" r="2.5" fill="#915AEE"/>
<circle cx="134.5" cy="156.5" r="2.5" fill="#915AEE"/>
<circle cx="145.5" cy="156.5" r="2.5" fill="#915AEE"/>
<circle cx="156.5" cy="156.5" r="2.5" fill="#915AEE"/>
<circle cx="167.5" cy="156.5" r="2.5" fill="#915AEE"/>
<circle cx="178.5" cy="156.5" r="2.5" fill="#915AEE"/>
<circle cx="189.5" cy="156.5" r="2.5" fill="#915AEE"/>
<circle cx="200.5" cy="156.5" r="2.5" fill="#915AEE"/>
<circle cx="211.5" cy="156.5" r="2.5" fill="#915AEE"/>
<circle cx="222.5" cy="156.5" r="2.5" fill="#915AEE"/>
<circle cx="233.5" cy="156.5" r="2.5" fill="#915AEE"/>
<circle cx="244.5" cy="156.5" r="2.5" fill="#915AEE"/>
<circle cx="2.5" cy="167.5" r="2.5" fill="#915AEE"/>
<circle cx="13.5" cy="167.5" r="2.5" fill="#915AEE"/>
<circle cx="24.5" cy="167.5" r="2.5" fill="#915AEE"/>
<circle cx="35.5" cy="167.5" r="2.5" fill="#915AEE"/>
<circle cx="46.5" cy="167.5" r="2.5" fill="#915AEE"/>
<circle cx="57.5" cy="167.5" r="2.5" fill="#915AEE"/>
<circle cx="68.5" cy="167.5" r="2.5" fill="#915AEE"/>
<circle cx="79.5" cy="167.5" r="2.5" fill="#915AEE"/>
<circle cx="90.5" cy="167.5" r="2.5" fill="#915AEE"/>
<circle cx="101.5" cy="167.5" r="2.5" fill="#915AEE"/>
<circle cx="112.5" cy="167.5" r="2.5" fill="#915AEE"/>
<circle cx="123.5" cy="167.5" r="2.5" fill="#915AEE"/>
<circle cx="134.5" cy="167.5" r="2.5" fill="#915AEE"/>
<circle cx="145.5" cy="167.5" r="2.5" fill="#915AEE"/>
<circle cx="156.5" cy="167.5" r="2.5" fill="#915AEE"/>
<circle cx="167.5" cy="167.5" r="2.5" fill="#915AEE"/>
<circle cx="178.5" cy="167.5" r="2.5" fill="#915AEE"/>
<circle cx="189.5" cy="167.5" r="2.5" fill="#915AEE"/>
<circle cx="200.5" cy="167.5" r="2.5" fill="#915AEE"/>
<circle cx="211.5" cy="167.5" r="2.5" fill="#915AEE"/>
<circle cx="222.5" cy="167.5" r="2.5" fill="#915AEE"/>
<circle cx="233.5" cy="167.5" r="2.5" fill="#915AEE"/>
<circle cx="244.5" cy="167.5" r="2.5" fill="#915AEE"/>
<circle cx="2.5" cy="178.5" r="2.5" fill="#915AEE"/>
<circle cx="13.5" cy="178.5" r="2.5" fill="#915AEE"/>
<circle cx="24.5" cy="178.5" r="2.5" fill="#915AEE"/>
<circle cx="35.5" cy="178.5" r="2.5" fill="#915AEE"/>
<circle cx="46.5" cy="178.5" r="2.5" fill="#915AEE"/>
<circle cx="57.5" cy="178.5" r="2.5" fill="#915AEE"/>
<circle cx="68.5" cy="178.5" r="2.5" fill="#915AEE"/>
<circle cx="79.5" cy="178.5" r="2.5" fill="#915AEE"/>
<circle cx="90.5" cy="178.5" r="2.5" fill="#915AEE"/>
<circle cx="101.5" cy="178.5" r="2.5" fill="#915AEE"/>
<circle cx="112.5" cy="178.5" r="2.5" fill="#915AEE"/>
<circle cx="123.5" cy="178.5" r="2.5" fill="#915AEE"/>
<circle cx="134.5" cy="178.5" r="2.5" fill="#915AEE"/>
<circle cx="145.5" cy="178.5" r="2.5" fill="#915AEE"/>
<circle cx="156.5" cy="178.5" r="2.5" fill="#915AEE"/>
<circle cx="167.5" cy="178.5" r="2.5" fill="#915AEE"/>
<circle cx="178.5" cy="178.5" r="2.5" fill="#915AEE"/>
<circle cx="189.5" cy="178.5" r="2.5" fill="#915AEE"/>
<circle cx="200.5" cy="178.5" r="2.5" fill="#915AEE"/>
<circle cx="211.5" cy="178.5" r="2.5" fill="#915AEE"/>
<circle cx="222.5" cy="178.5" r="2.5" fill="#915AEE"/>
<circle cx="233.5" cy="178.5" r="2.5" fill="#915AEE"/>
<circle cx="244.5" cy="178.5" r="2.5" fill="#915AEE"/>
<circle cx="2.5" cy="189.5" r="2.5" fill="#915AEE"/>
<circle cx="13.5" cy="189.5" r="2.5" fill="#915AEE"/>
<circle cx="24.5" cy="189.5" r="2.5" fill="#915AEE"/>
<circle cx="35.5" cy="189.5" r="2.5" fill="#915AEE"/>
<circle cx="46.5" cy="189.5" r="2.5" fill="#915AEE"/>
<circle cx="57.5" cy="189.5" r="2.5" fill="#915AEE"/>
<circle cx="68.5" cy="189.5" r="2.5" fill="#915AEE"/>
<circle cx="79.5" cy="189.5" r="2.5" fill="#915AEE"/>
<circle cx="90.5" cy="189.5" r="2.5" fill="#915AEE"/>
<circle cx="101.5" cy="189.5" r="2.5" fill="#915AEE"/>
<circle cx="112.5" cy="189.5" r="2.5" fill="#915AEE"/>
<circle cx="123.5" cy="189.5" r="2.5" fill="#915AEE"/>
<circle cx="134.5" cy="189.5" r="2.5" fill="#915AEE"/>
<circle cx="145.5" cy="189.5" r="2.5" fill="#915AEE"/>
<circle cx="156.5" cy="189.5" r="2.5" fill="#915AEE"/>
<circle cx="167.5" cy="189.5" r="2.5" fill="#915AEE"/>
<circle cx="178.5" cy="189.5" r="2.5" fill="#915AEE"/>
<circle cx="189.5" cy="189.5" r="2.5" fill="#915AEE"/>
<circle cx="200.5" cy="189.5" r="2.5" fill="#915AEE"/>
<circle cx="211.5" cy="189.5" r="2.5" fill="#915AEE"/>
<circle cx="222.5" cy="189.5" r="2.5" fill="#915AEE"/>
<circle cx="233.5" cy="189.5" r="2.5" fill="#915AEE"/>
<circle cx="244.5" cy="189.5" r="2.5" fill="#915AEE"/>
<circle cx="2.5" cy="200.5" r="2.5" fill="#915AEE"/>
<circle cx="13.5" cy="200.5" r="2.5" fill="#915AEE"/>
<circle cx="24.5" cy="200.5" r="2.5" fill="#915AEE"/>
<circle cx="35.5" cy="200.5" r="2.5" fill="#915AEE"/>
<circle cx="46.5" cy="200.5" r="2.5" fill="#915AEE"/>
<circle cx="57.5" cy="200.5" r="2.5" fill="#915AEE"/>
<circle cx="68.5" cy="200.5" r="2.5" fill="#915AEE"/>
<circle cx="79.5" cy="200.5" r="2.5" fill="#915AEE"/>
<circle cx="90.5" cy="200.5" r="2.5" fill="#915AEE"/>
<circle cx="101.5" cy="200.5" r="2.5" fill="#915AEE"/>
<circle cx="112.5" cy="200.5" r="2.5" fill="#915AEE"/>
<circle cx="123.5" cy="200.5" r="2.5" fill="#915AEE"/>
<circle cx="134.5" cy="200.5" r="2.5" fill="#915AEE"/>
<circle cx="145.5" cy="200.5" r="2.5" fill="#915AEE"/>
<circle cx="156.5" cy="200.5" r="2.5" fill="#915AEE"/>
<circle cx="167.5" cy="200.5" r="2.5" fill="#915AEE"/>
<circle cx="178.5" cy="200.5" r="2.5" fill="#915AEE"/>
<circle cx="189.5" cy="200.5" r="2.5" fill="#915AEE"/>
<circle cx="200.5" cy="200.5" r="2.5" fill="#915AEE"/>
<circle cx="211.5" cy="200.5" r="2.5" fill="#915AEE"/>
<circle cx="222.5" cy="200.5" r="2.5" fill="#915AEE"/>
<circle cx="233.5" cy="200.5" r="2.5" fill="#915AEE"/>
<circle cx="244.5" cy="200.5" r="2.5" fill="#915AEE"/>
<circle cx="2.5" cy="211.5" r="2.5" fill="#915AEE"/>
<circle cx="13.5" cy="211.5" r="2.5" fill="#915AEE"/>
<circle cx="24.5" cy="211.5" r="2.5" fill="#915AEE"/>
<circle cx="35.5" cy="211.5" r="2.5" fill="#915AEE"/>
<circle cx="46.5" cy="211.5" r="2.5" fill="#915AEE"/>
<circle cx="57.5" cy="211.5" r="2.5" fill="#915AEE"/>
<circle cx="68.5" cy="211.5" r="2.5" fill="#915AEE"/>
<circle cx="79.5" cy="211.5" r="2.5" fill="#915AEE"/>
<circle cx="90.5" cy="211.5" r="2.5" fill="#915AEE"/>
<circle cx="101.5" cy="211.5" r="2.5" fill="#915AEE"/>
<circle cx="112.5" cy="211.5" r="2.5" fill="#915AEE"/>
<circle cx="123.5" cy="211.5" r="2.5" fill="#915AEE"/>
<circle cx="134.5" cy="211.5" r="2.5" fill="#915AEE"/>
<circle cx="145.5" cy="211.5" r="2.5" fill="#915AEE"/>
<circle cx="156.5" cy="211.5" r="2.5" fill="#915AEE"/>
<circle cx="167.5" cy="211.5" r="2.5" fill="#915AEE"/>
<circle cx="178.5" cy="211.5" r="2.5" fill="#915AEE"/>
<circle cx="189.5" cy="211.5" r="2.5" fill="#915AEE"/>
<circle cx="200.5" cy="211.5" r="2.5" fill="#915AEE"/>
<circle cx="211.5" cy="211.5" r="2.5" fill="#915AEE"/>
<circle cx="222.5" cy="211.5" r="2.5" fill="#915AEE"/>
<circle cx="233.5" cy="211.5" r="2.5" fill="#915AEE"/>
<circle cx="244.5" cy="211.5" r="2.5" fill="#915AEE"/>
<circle cx="2.5" cy="222.5" r="2.5" fill="#915AEE"/>
<circle cx="13.5" cy="222.5" r="2.5" fill="#915AEE"/>
<circle cx="24.5" cy="222.5" r="2.5" fill="#915AEE"/>
<circle cx="35.5" cy="222.5" r="2.5" fill="#915AEE"/>
<circle cx="46.5" cy="222.5" r="2.5" fill="#915AEE"/>
<circle cx="57.5" cy="222.5" r="2.5" fill="#915AEE"/>
<circle cx="68.5" cy="222.5" r="2.5" fill="#915AEE"/>
<circle cx="79.5" cy="222.5" r="2.5" fill="#915AEE"/>
<circle cx="90.5" cy="222.5" r="2.5" fill="#915AEE"/>
<circle cx="101.5" cy="222.5" r="2.5" fill="#915AEE"/>
<circle cx="112.5" cy="222.5" r="2.5" fill="#915AEE"/>
<circle cx="123.5" cy="222.5" r="2.5" fill="#915AEE"/>
<circle cx="134.5" cy="222.5" r="2.5" fill="#915AEE"/>
<circle cx="145.5" cy="222.5" r="2.5" fill="#915AEE"/>
<circle cx="156.5" cy="222.5" r="2.5" fill="#915AEE"/>
<circle cx="167.5" cy="222.5" r="2.5" fill="#915AEE"/>
<circle cx="178.5" cy="222.5" r="2.5" fill="#915AEE"/>
<circle cx="189.5" cy="222.5" r="2.5" fill="#915AEE"/>
<circle cx="200.5" cy="222.5" r="2.5" fill="#915AEE"/>
<circle cx="211.5" cy="222.5" r="2.5" fill="#915AEE"/>
<circle cx="222.5" cy="222.5" r="2.5" fill="#915AEE"/>
<circle cx="233.5" cy="222.5" r="2.5" fill="#915AEE"/>
<circle cx="244.5" cy="222.5" r="2.5" fill="#915AEE"/>
<circle cx="2.5" cy="233.5" r="2.5" fill="#915AEE"/>
<circle cx="13.5" cy="233.5" r="2.5" fill="#915AEE"/>
<circle cx="24.5" cy="233.5" r="2.5" fill="#915AEE"/>
<circle cx="35.5" cy="233.5" r="2.5" fill="#915AEE"/>
<circle cx="46.5" cy="233.5" r="2.5" fill="#915AEE"/>
<circle cx="57.5" cy="233.5" r="2.5" fill="#915AEE"/>
<circle cx="68.5" cy="233.5" r="2.5" fill="#915AEE"/>
<circle cx="79.5" cy="233.5" r="2.5" fill="#915AEE"/>
<circle cx="90.5" cy="233.5" r="2.5" fill="#915AEE"/>
<circle cx="101.5" cy="233.5" r="2.5" fill="#915AEE"/>
<circle cx="112.5" cy="233.5" r="2.5" fill="#915AEE"/>
<circle cx="123.5" cy="233.5" r="2.5" fill="#915AEE"/>
<circle cx="134.5" cy="233.5" r="2.5" fill="#915AEE"/>
<circle cx="145.5" cy="233.5" r="2.5" fill="#915AEE"/>
<circle cx="156.5" cy="233.5" r="2.5" fill="#915AEE"/>
<circle cx="167.5" cy="233.5" r="2.5" fill="#915AEE"/>
<circle cx="178.5" cy="233.5" r="2.5" fill="#915AEE"/>
<circle cx="189.5" cy="233.5" r="2.5" fill="#915AEE"/>
<circle cx="200.5" cy="233.5" r="2.5" fill="#915AEE"/>
<circle cx="211.5" cy="233.5" r="2.5" fill="#915AEE"/>
<circle cx="222.5" cy="233.5" r="2.5" fill="#915AEE"/>
<circle cx="233.5" cy="233.5" r="2.5" fill="#915AEE"/>
<circle cx="244.5" cy="233.5" r="2.5" fill="#915AEE"/>
<circle cx="2.5" cy="244.5" r="2.5" fill="#915AEE"/>
<circle cx="13.5" cy="244.5" r="2.5" fill="#915AEE"/>
<circle cx="24.5" cy="244.5" r="2.5" fill="#915AEE"/>
<circle cx="35.5" cy="244.5" r="2.5" fill="#915AEE"/>
<circle cx="46.5" cy="244.5" r="2.5" fill="#915AEE"/>
<circle cx="57.5" cy="244.5" r="2.5" fill="#915AEE"/>
<circle cx="68.5" cy="244.5" r="2.5" fill="#915AEE"/>
<circle cx="79.5" cy="244.5" r="2.5" fill="#915AEE"/>
<circle cx="90.5" cy="244.5" r="2.5" fill="#915AEE"/>
<circle cx="101.5" cy="244.5" r="2.5" fill="#915AEE"/>
<circle cx="112.5" cy="244.5" r="2.5" fill="#915AEE"/>
<circle cx="123.5" cy="244.5" r="2.5" fill="#915AEE"/>
<circle cx="134.5" cy="244.5" r="2.5" fill="#915AEE"/>
<circle cx="145.5" cy="244.5" r="2.5" fill="#915AEE"/>
<circle cx="156.5" cy="244.5" r="2.5" fill="#915AEE"/>
<circle cx="167.5" cy="244.5" r="2.5" fill="#915AEE"/>
<circle cx="178.5" cy="244.5" r="2.5" fill="#915AEE"/>
<circle cx="189.5" cy="244.5" r="2.5" fill="#915AEE"/>
<circle cx="200.5" cy="244.5" r="2.5" fill="#915AEE"/>
<circle cx="211.5" cy="244.5" r="2.5" fill="#915AEE"/>
<circle cx="222.5" cy="244.5" r="2.5" fill="#915AEE"/>
<circle cx="233.5" cy="244.5" r="2.5" fill="#915AEE"/>
<circle cx="244.5" cy="244.5" r="2.5" fill="#915AEE"/>
<circle cx="2.5" cy="255.5" r="2.5" fill="#915AEE"/>
<circle cx="13.5" cy="255.5" r="2.5" fill="#915AEE"/>
<circle cx="24.5" cy="255.5" r="2.5" fill="#915AEE"/>
<circle cx="35.5" cy="255.5" r="2.5" fill="#915AEE"/>
<circle cx="46.5" cy="255.5" r="2.5" fill="#915AEE"/>
<circle cx="57.5" cy="255.5" r="2.5" fill="#915AEE"/>
<circle cx="68.5" cy="255.5" r="2.5" fill="#915AEE"/>
<circle cx="79.5" cy="255.5" r="2.5" fill="#915AEE"/>
<circle cx="90.5" cy="255.5" r="2.5" fill="#915AEE"/>
<circle cx="101.5" cy="255.5" r="2.5" fill="#915AEE"/>
<circle cx="112.5" cy="255.5" r="2.5" fill="#915AEE"/>
<circle cx="123.5" cy="255.5" r="2.5" fill="#915AEE"/>
<circle cx="134.5" cy="255.5" r="2.5" fill="#915AEE"/>
<circle cx="145.5" cy="255.5" r="2.5" fill="#915AEE"/>
<circle cx="156.5" cy="255.5" r="2.5" fill="#915AEE"/>
<circle cx="167.5" cy="255.5" r="2.5" fill="#915AEE"/>
<circle cx="178.5" cy="255.5" r="2.5" fill="#915AEE"/>
<circle cx="189.5" cy="255.5" r="2.5" fill="#915AEE"/>
<circle cx="200.5" cy="255.5" r="2.5" fill="#915AEE"/>
<circle cx="211.5" cy="255.5" r="2.5" fill="#915AEE"/>
<circle cx="222.5" cy="255.5" r="2.5" fill="#915AEE"/>
<circle cx="233.5" cy="255.5" r="2.5" fill="#915AEE"/>
<circle cx="244.5" cy="255.5" r="2.5" fill="#915AEE"/>
<circle cx="2.5" cy="266.5" r="2.5" fill="#915AEE"/>
<circle cx="13.5" cy="266.5" r="2.5" fill="#915AEE"/>
<circle cx="24.5" cy="266.5" r="2.5" fill="#915AEE"/>
<circle cx="35.5" cy="266.5" r="2.5" fill="#915AEE"/>
<circle cx="46.5" cy="266.5" r="2.5" fill="#915AEE"/>
<circle cx="57.5" cy="266.5" r="2.5" fill="#915AEE"/>
<circle cx="68.5" cy="266.5" r="2.5" fill="#915AEE"/>
<circle cx="79.5" cy="266.5" r="2.5" fill="#915AEE"/>
<circle cx="90.5" cy="266.5" r="2.5" fill="#915AEE"/>
<circle cx="101.5" cy="266.5" r="2.5" fill="#915AEE"/>
<circle cx="112.5" cy="266.5" r="2.5" fill="#915AEE"/>
<circle cx="123.5" cy="266.5" r="2.5" fill="#915AEE"/>
<circle cx="134.5" cy="266.5" r="2.5" fill="#915AEE"/>
<circle cx="145.5" cy="266.5" r="2.5" fill="#915AEE"/>
<circle cx="156.5" cy="266.5" r="2.5" fill="#915AEE"/>
<circle cx="167.5" cy="266.5" r="2.5" fill="#915AEE"/>
<circle cx="178.5" cy="266.5" r="2.5" fill="#915AEE"/>
<circle cx="189.5" cy="266.5" r="2.5" fill="#915AEE"/>
<circle cx="200.5" cy="266.5" r="2.5" fill="#915AEE"/>
<circle cx="211.5" cy="266.5" r="2.5" fill="#915AEE"/>
<circle cx="222.5" cy="266.5" r="2.5" fill="#915AEE"/>
<circle cx="233.5" cy="266.5" r="2.5" fill="#915AEE"/>
<circle cx="244.5" cy="266.5" r="2.5" fill="#915AEE"/>
<circle cx="2.5" cy="277.5" r="2.5" fill="#915AEE"/>
<circle cx="13.5" cy="277.5" r="2.5" fill="#915AEE"/>
<circle cx="24.5" cy="277.5" r="2.5" fill="#915AEE"/>
<circle cx="35.5" cy="277.5" r="2.5" fill="#915AEE"/>
<circle cx="46.5" cy="277.5" r="2.5" fill="#915AEE"/>
<circle cx="57.5" cy="277.5" r="2.5" fill="#915AEE"/>
<circle cx="68.5" cy="277.5" r="2.5" fill="#915AEE"/>
<circle cx="79.5" cy="277.5" r="2.5" fill="#915AEE"/>
<circle cx="90.5" cy="277.5" r="2.5" fill="#915AEE"/>
<circle cx="101.5" cy="277.5" r="2.5" fill="#915AEE"/>
<circle cx="112.5" cy="277.5" r="2.5" fill="#915AEE"/>
<circle cx="123.5" cy="277.5" r="2.5" fill="#915AEE"/>
<circle cx="134.5" cy="277.5" r="2.5" fill="#915AEE"/>
<circle cx="145.5" cy="277.5" r="2.5" fill="#915AEE"/>
<circle cx="156.5" cy="277.5" r="2.5" fill="#915AEE"/>
<circle cx="167.5" cy="277.5" r="2.5" fill="#915AEE"/>
<circle cx="178.5" cy="277.5" r="2.5" fill="#915AEE"/>
<circle cx="189.5" cy="277.5" r="2.5" fill="#915AEE"/>
<circle cx="200.5" cy="277.5" r="2.5" fill="#915AEE"/>
<circle cx="211.5" cy="277.5" r="2.5" fill="#915AEE"/>
<circle cx="222.5" cy="277.5" r="2.5" fill="#915AEE"/>
<circle cx="233.5" cy="277.5" r="2.5" fill="#915AEE"/>
<circle cx="244.5" cy="277.5" r="2.5" fill="#915AEE"/>
<circle cx="2.5" cy="288.5" r="2.5" fill="#915AEE"/>
<circle cx="13.5" cy="288.5" r="2.5" fill="#915AEE"/>
<circle cx="24.5" cy="288.5" r="2.5" fill="#915AEE"/>
<circle cx="35.5" cy="288.5" r="2.5" fill="#915AEE"/>
<circle cx="46.5" cy="288.5" r="2.5" fill="#915AEE"/>
<circle cx="57.5" cy="288.5" r="2.5" fill="#915AEE"/>
<circle cx="68.5" cy="288.5" r="2.5" fill="#915AEE"/>
<circle cx="79.5" cy="288.5" r="2.5" fill="#915AEE"/>
<circle cx="90.5" cy="288.5" r="2.5" fill="#915AEE"/>
<circle cx="101.5" cy="288.5" r="2.5" fill="#915AEE"/>
<circle cx="112.5" cy="288.5" r="2.5" fill="#915AEE"/>
<circle cx="123.5" cy="288.5" r="2.5" fill="#915AEE"/>
<circle cx="134.5" cy="288.5" r="2.5" fill="#915AEE"/>
<circle cx="145.5" cy="288.5" r="2.5" fill="#915AEE"/>
<circle cx="156.5" cy="288.5" r="2.5" fill="#915AEE"/>
<circle cx="167.5" cy="288.5" r="2.5" fill="#915AEE"/>
<circle cx="178.5" cy="288.5" r="2.5" fill="#915AEE"/>
<circle cx="189.5" cy="288.5" r="2.5" fill="#915AEE"/>
<circle cx="200.5" cy="288.5" r="2.5" fill="#915AEE"/>
<circle cx="211.5" cy="288.5" r="2.5" fill="#915AEE"/>
<circle cx="222.5" cy="288.5" r="2.5" fill="#915AEE"/>
<circle cx="233.5" cy="288.5" r="2.5" fill="#915AEE"/>
<circle cx="244.5" cy="288.5" r="2.5" fill="#915AEE"/>
</svg>
