<svg id="SvgjsSvg1091" width="288" height="288" xmlns="http://www.w3.org/2000/svg" version="1.1" xmlns:xlink="http://www.w3.org/1999/xlink" xmlns:svgjs="http://svgjs.com/svgjs"><defs id="SvgjsDefs1092"></defs><g id="SvgjsG1093"><svg xmlns="http://www.w3.org/2000/svg" viewBox="0 0 64 64" width="288" height="288"><g stroke="#ffffff" stroke-linecap="round" stroke-linejoin="round" stroke-miterlimit="10" stroke-width="1.5" class="colorStroke494949 svgStroke"><path fill="#7c3aed" d="M54.848 42.076l1.443 3.842-6.626 2.848-1.5-3.953-6.026-14.464s-.027 7.742.396 19.896l-9.241.822-1.819.137c-1.103 0-1.042-1.042-1.042-1.042-.418.922-1.573.903-1.573.903l-9.319-.332c-.357-12.119-.169-20.3-.169-20.3l-5.907 14.462-1.558 3.83-6.646-2.83 1.616-3.819 10.578-25.753 8.089-2.699 1.079-1.079s2.714-1.534 8.904 0l1.082 1.079 8.09 2.699 10.149 25.753z" class="colorDDDDDC svgShape"></path><circle cx="32.887" cy="36.083" r=".231" fill="none"></circle><circle cx="32.654" cy="42.975" r=".231" fill="none"></circle><path fill="#7c3aed" d="M48.165 44.813l1.5 3.953 6.626-2.848-1.396-3.736zM6.877 42.076l-1.616 3.819 6.645 2.832 1.558-3.831z" class="colorB7B7B7 svgShape"></path><path fill="none" d="M30.433 50.162l-.034-5.104s.038-4.3.21-9.791l4.92-22.723 1.08 1.079 8.091 2.699 10.147 25.753 1.443 3.842-6.626 2.848-1.5-3.953-6.026-14.464s-.027 7.742.396 19.896l-9.241.822-1.819.137c-1.102.001-1.041-1.041-1.041-1.041z"></path><path fill="#7c3aed" d="M30.608 35.268c1.309-5.051 7.865-10.667 7.865-10.667l-1.35-1.243 2.7-1.713-3.216-8.021-1.08-1.079-4.919 22.723z" class="colorB7B7B7 svgShape"></path><path fill="#7c3aed" d="M26.623 12.545l-1.079 1.079-3.839 8.021 2.698 1.713-1.351 1.243s6.276 5.486 7.59 10.538l-4.019-22.594z" class="colorB7B7B7 svgShape"></path><path fill="none" d="M30.643 35.141l-4.02-22.596-1.079 1.079-8.089 2.699L6.877 42.076l-1.616 3.818 6.646 2.832 1.558-3.83 5.907-14.463s-.188 8.181.169 20.299l9.319.334s1.155.018 1.573-.904l.21-15.021z"></path><path fill="#7c3aed" d="M35.527 12.545c-6.19-1.534-8.904 0-8.904 0l4.02 22.596-.034.127 4.918-22.723z" class="colorB7B7B7 svgShape"></path></g></svg></g></svg>